<svg width="192" height="50" viewBox="0 0 192 50" fill="none" xmlns="http://www.w3.org/2000/svg">
<path d="M29.1993 2.73377L30.6163 7.18201C29.8176 7.23548 29.1492 7.80362 28.9687 8.58566C28.7882 9.36435 29.1425 10.1698 29.8376 10.5675C29.2427 11.6804 27.9627 12.2351 26.7429 11.9076C25.5264 11.5801 24.6942 10.4605 24.7343 9.20059C25.5331 9.20393 26.2416 8.68258 26.4755 7.91725C26.7095 7.15193 26.4154 6.32311 25.7503 5.87862L29.1993 2.73377ZM9.70191 2.73377L8.28823 7.18535C9.08697 7.23882 9.75538 7.80697 9.93585 8.589C10.1163 9.36769 9.76206 10.1731 9.06692 10.5708C9.6618 11.6837 10.9451 12.2385 12.1616 11.911C13.3781 11.5835 14.2136 10.4639 14.1702 9.20393C13.3715 9.20727 12.6629 8.68592 12.429 7.92059C12.1951 7.15527 12.4892 6.32645 13.1542 5.88196L9.70191 2.73377ZM19.4506 0L15.0391 6.54368C16.2389 8.20801 16.1453 10.4772 14.8119 12.038C13.4817 13.5987 11.2559 14.0465 9.42452 13.1241C7.59309 12.2017 6.62724 10.1464 7.0851 8.14785L0 5.20687L7.21878 17.5724H19.4506H31.6824L38.9012 5.20687L31.8161 8.14785C32.2773 10.1464 31.3115 12.2017 29.4767 13.1241C27.6453 14.0465 25.4195 13.5987 24.0893 12.038C22.7559 10.4772 22.6656 8.20801 23.8621 6.54368L19.4506 0ZM4.42819 25.2289H8.86974H24.2197H30.0315L32.4544 28.972H24.2197H16.3525H11.3997H6.9581H6.44677H2.00522L19.7046 50L22.1877 47.0523L10.3837 33.0426H14.8252C17.2014 35.8632 19.5609 38.6806 21.9204 41.4979L21.917 41.5046L24.3901 44.4422L26.8632 41.5046L26.8565 41.4979C28.1733 39.9271 29.4867 38.3597 30.8068 36.789H25.874L24.3901 38.5569L19.7648 33.0426H29.0289H33.9817L37.1199 29.3162L36.8993 28.972L31.8462 21.1583H7.05836L4.42819 25.2289Z" fill="black"/>
<mask id="mask0_7_13" style="mask-type:luminance" maskUnits="userSpaceOnUse" x="0" y="0" width="39" height="50">
<path d="M29.1993 2.73377L30.6163 7.18201C29.8176 7.23548 29.1492 7.80362 28.9687 8.58566C28.7882 9.36435 29.1425 10.1698 29.8376 10.5675C29.2427 11.6804 27.9627 12.2351 26.7429 11.9076C25.5264 11.5801 24.6942 10.4605 24.7343 9.20059C25.5331 9.20393 26.2416 8.68258 26.4755 7.91725C26.7095 7.15193 26.4154 6.32311 25.7503 5.87862L29.1993 2.73377ZM9.70191 2.73377L8.28823 7.18535C9.08697 7.23882 9.75538 7.80697 9.93585 8.589C10.1163 9.36769 9.76206 10.1731 9.06692 10.5708C9.6618 11.6837 10.9451 12.2385 12.1616 11.911C13.3781 11.5835 14.2136 10.4639 14.1702 9.20393C13.3715 9.20727 12.6629 8.68592 12.429 7.92059C12.1951 7.15527 12.4892 6.32645 13.1542 5.88196L9.70191 2.73377ZM19.4506 0L15.0391 6.54368C16.2389 8.20801 16.1453 10.4772 14.8119 12.038C13.4817 13.5987 11.2559 14.0465 9.42452 13.1241C7.59309 12.2017 6.62724 10.1464 7.0851 8.14785L0 5.20687L7.21878 17.5724H19.4506H31.6824L38.9012 5.20687L31.8161 8.14785C32.2773 10.1464 31.3115 12.2017 29.4767 13.1241C27.6453 14.0465 25.4195 13.5987 24.0893 12.038C22.7559 10.4772 22.6656 8.20801 23.8621 6.54368L19.4506 0ZM4.42819 25.2289H8.86974H24.2197H30.0315L32.4544 28.972H24.2197H16.3525H11.3997H6.9581H6.44677H2.00522L19.7046 50L22.1877 47.0523L10.3837 33.0426H14.8252C17.2014 35.8632 19.5609 38.6806 21.9204 41.4979L21.917 41.5046L24.3901 44.4422L26.8632 41.5046L26.8565 41.4979C28.1733 39.9271 29.4867 38.3597 30.8068 36.789H25.874L24.3901 38.5569L19.7648 33.0426H29.0289H33.9817L37.1199 29.3162L36.8993 28.972L31.8462 21.1583H7.05836L4.42819 25.2289Z" fill="white"/>
</mask>
<g mask="url(#mask0_7_13)">
<path d="M38.8978 0H0V50.0033H38.8978V0Z" fill="black"/>
</g>
<path d="M77.2378 39.5828C76.5424 39.5828 75.847 39.2351 75.1516 38.5396C74.484 37.8164 73.872 36.9263 73.3157 35.8693C72.7872 34.8122 72.1613 33.6718 71.4381 32.4478C70.7149 31.1961 69.9917 30.0278 69.2684 28.943C68.5452 27.8581 67.6273 26.9402 66.5146 26.1892C65.4019 25.4381 64.2197 25.0348 62.968 24.9791V30.153C62.968 33.1572 63.0515 35.2017 63.2184 36.2865C63.4131 37.3435 63.6773 38.0111 64.0111 38.2893C64.6787 38.8178 65.7079 39.0821 67.0987 39.0821L67.1822 39.5828H56L56.0834 39.0821C57.4465 39.0821 58.4478 38.8317 59.0876 38.331C59.6161 37.9138 59.9221 36.5508 60.0056 34.242C60.0612 33.3241 60.089 31.9611 60.089 30.153V19.5967C60.089 16.509 60.0056 14.4645 59.8387 13.4631C59.6718 12.4618 59.4214 11.8359 59.0876 11.5855C58.4478 11.1127 57.4465 10.8762 56.0834 10.8762L56 10.3755H65.6801C72.6898 10.3755 76.1947 12.7399 76.1947 17.4687C76.1947 19.4993 75.4715 21.21 74.025 22.6008C72.6064 23.9638 70.8818 24.7566 68.8512 24.9791C70.8818 26.1752 72.7594 28.3727 74.484 31.5716C75.1516 32.8234 75.8609 34.0195 76.612 35.1599C78.2531 37.7747 80.3672 39.0821 82.9541 39.0821L83.0375 39.5828H77.2378ZM62.968 11.3352V24.1446H65.5967C67.7107 24.1446 69.4631 23.6022 70.854 22.5174C72.2448 21.4325 72.9402 19.8192 72.9402 17.6773C72.9402 13.4492 70.5202 11.3352 65.6801 11.3352H62.968Z" fill="black"/>
<path d="M96.9481 10C101.427 10 105.001 11.3769 107.671 14.1307C110.37 16.8567 111.719 20.4033 111.719 24.7705C111.719 29.1099 110.411 32.7399 107.797 35.6606C105.21 38.5535 101.691 40 97.2402 40C92.7896 40 89.2013 38.5396 86.4753 35.6189C83.7771 32.6982 82.428 29.0682 82.428 24.7288C82.428 20.3616 83.7214 16.815 86.3084 14.089C88.9231 11.363 92.4697 10 96.9481 10ZM97.1985 39.0403C100.759 39.0403 103.457 37.7608 105.293 35.2017C107.157 32.6147 108.089 29.2211 108.089 25.0209C108.089 20.8206 107.115 17.427 105.168 14.8401C103.221 12.2531 100.467 10.9597 96.9064 10.9597C93.3737 10.9597 90.6755 12.2392 88.8118 14.7983C86.976 17.3574 86.058 20.751 86.058 24.9791C86.058 29.1794 87.0316 32.573 88.9787 35.1599C90.9259 37.7469 93.6658 39.0403 97.1985 39.0403Z" fill="black"/>
<path d="M130.305 30.153C130.305 34.2698 130.542 36.7733 131.015 37.6634C131.182 37.9972 131.474 38.2893 131.891 38.5396C132.308 38.79 132.753 38.943 133.226 38.9986C133.699 39.0542 134.353 39.0821 135.187 39.0821L135.271 39.5828H122.419L122.503 39.0821C123.337 39.0821 123.991 39.0682 124.464 39.0403C124.965 38.9847 125.41 38.8178 125.799 38.5396C126.216 38.2615 126.508 37.9694 126.675 37.6634C126.87 37.3574 127.023 36.815 127.134 36.0362C127.301 35.0904 127.385 33.1293 127.385 30.153V27.5243L122.711 19.6384C121.404 17.4131 120.431 15.7997 119.791 14.7983C119.151 13.7691 118.497 12.9207 117.83 12.2531C117.162 11.5855 116.606 11.1961 116.161 11.0848C115.743 10.9458 115.118 10.8762 114.283 10.8762L114.2 10.3755H124.589L124.506 10.8762C123.588 10.8762 122.934 10.9458 122.545 11.0848C122.183 11.1961 122.002 11.4743 122.002 11.9193C122.002 12.42 122.169 12.9903 122.503 13.63C122.864 14.2698 123.101 14.701 123.212 14.9235C123.323 15.146 123.504 15.4798 123.755 15.9249C124.005 16.3421 124.214 16.6898 124.38 16.968C125.131 18.3032 125.646 19.1933 125.924 19.6384L129.679 26.1057L132.892 19.6384C134.812 15.6885 135.771 13.2406 135.771 12.2949C135.771 11.6829 135.563 11.2935 135.145 11.1266C134.756 10.9597 134.033 10.8762 132.976 10.8762L132.892 10.3755H142.239L142.155 10.8762C140.848 10.8762 139.749 11.0987 138.859 11.5438C138.191 11.8776 137.246 13.1989 136.022 15.5077C135.549 16.3978 134.853 17.7747 133.935 19.6384L130.305 27.0654V30.153Z" fill="black"/>
<path d="M166.385 39.5828H145.356L145.439 39.0821C146.83 39.0821 147.845 38.8178 148.485 38.2893C149.18 37.7051 149.528 34.993 149.528 30.153V19.8053C149.528 16.8289 149.431 14.7983 149.236 13.7135C149.069 12.6008 148.819 11.9054 148.485 11.6273C147.845 11.0987 146.83 10.8345 145.439 10.8345L145.356 10.3755H164.841V16.3839L164.34 16.3004C164.34 14.4367 163.353 13.1433 161.378 12.42C159.431 11.6968 156.44 11.3352 152.407 11.3352V24.4784C155.077 24.4784 156.997 24.3394 158.165 24.0612C159.333 23.783 160.084 23.3658 160.418 22.8095C160.752 22.2253 160.919 21.2656 160.919 19.9305L161.378 19.847V29.9861L160.919 29.9026C160.919 28.5396 160.752 27.58 160.418 27.0236C160.084 26.4673 159.333 26.064 158.165 25.8136C156.997 25.5355 155.077 25.3964 152.407 25.3964V30.7789C152.407 33.7274 152.504 35.6885 152.699 36.662C152.922 37.6356 153.394 38.2893 154.118 38.6231C161.962 38.6231 165.884 36.9541 165.884 33.6161L166.385 33.5327V39.5828Z" fill="black"/>
<path d="M191.053 39.5828H171.108L171.192 39.0821C171.859 39.0821 172.388 39.0542 172.777 38.9986C173.195 38.943 173.57 38.79 173.904 38.5396C174.238 38.2893 174.474 38.0111 174.613 37.7051C174.78 37.3714 174.919 36.8289 175.031 36.0779C175.17 35.1043 175.239 33.1293 175.239 30.153V19.8053C175.239 15.6606 175.044 13.1433 174.655 12.2531C174.293 11.4743 173.681 11.0292 172.819 10.9179C172.402 10.8623 171.859 10.8345 171.192 10.8345L171.108 10.3755H182.332L182.249 10.8345C180.858 10.8345 179.843 11.0987 179.203 11.6273C178.508 12.2114 178.16 14.9374 178.16 19.8053V30.7789C178.16 33.783 178.257 35.7858 178.452 36.7872C178.647 37.7608 179.106 38.4145 179.829 38.7483C187.005 38.7483 190.594 37.0376 190.594 33.6161L191.053 33.5327V39.5828Z" fill="black"/>
</svg>
