<svg id="eLg8WwBP1AX1" xmlns="http://www.w3.org/2000/svg" xmlns:xlink="http://www.w3.org/1999/xlink" viewBox="0 0 700 451" shape-rendering="geometricPrecision" text-rendering="geometricPrecision">
<style><![CDATA[
#eLg8WwBP1AX4_tr {animation: eLg8WwBP1AX4_tr__tr 7000ms linear infinite normal forwards}@keyframes eLg8WwBP1AX4_tr__tr { 0% {transform: translate(353.330338px,225.215386px) rotate(360deg);animation-timing-function: cubic-bezier(0.785,0.135,0.15,0.86)} 28.571429% {transform: translate(353.330338px,225.215386px) rotate(270.000005deg)} 42.857143% {transform: translate(353.330338px,225.215386px) rotate(270.000005deg);animation-timing-function: cubic-bezier(0.785,0.135,0.15,0.86)} 71.428571% {transform: translate(353.330338px,225.215386px) rotate(360.000005deg)} 100% {transform: translate(353.330338px,225.215386px) rotate(360.000005deg)}} #eLg8WwBP1AX4 {animation: eLg8WwBP1AX4_c_o 7000ms linear infinite normal forwards}@keyframes eLg8WwBP1AX4_c_o { 0% {opacity: 1} 34.428571% {opacity: 1;animation-timing-function: cubic-bezier(0.68,-0.55,0.265,1.55)} 35.714286% {opacity: 0;animation-timing-function: cubic-bezier(0.68,-0.55,0.265,1.55)} 37.142857% {opacity: 1} 77.142857% {opacity: 1;animation-timing-function: cubic-bezier(0.075,0.82,0.165,1)} 78.571429% {opacity: 1;animation-timing-function: cubic-bezier(0.075,0.82,0.165,1)} 80% {opacity: 0;animation-timing-function: cubic-bezier(0.075,0.82,0.165,1)} 81.428571% {opacity: 1;animation-timing-function: cubic-bezier(0.075,0.82,0.165,1)} 82.857143% {opacity: 0} 84.571429% {opacity: 1} 100% {opacity: 1}}
]]></style>
<g mask="url(#eLg8WwBP1AX65)"><g transform="translate(-3.193974 0)"><g id="eLg8WwBP1AX4_tr" transform="translate(353.330338,225.215386) rotate(360)"><g id="eLg8WwBP1AX4" transform="translate(-353.330337,-225.215385)"><path d="M532.099,267.214c-.241-5.782-2.249-11.645-4.739-16.865-4.176-8.674-9.798-16.946-11.645-26.423-1.125-5.542-1.526-12.288-.081-17.83c2.731-10.36-2.168-21.925-9.878-29.234-2.169-2.088-4.739-3.774-6.505-6.264-1.526-2.088-2.41-4.578-3.213-7.068-3.132-9.155-6.264-18.231-9.397-27.386c5.622,3.935,12.69-4.337,12.047-11.164-.642-6.826-4.899-13.091-4.738-19.998.161-5.7824,3.534-11.4846,2.249-17.1868-1.366-6.2644-7.871-10.3604-9.558-16.5445-1.204-4.6581.402-9.8785-1.686-14.2154-1.526-2.9716-4.578-4.8188-7.469-6.5053-16.625-9.477-36.944-19.2752-54.051-10.6817-6.666,3.2929-12.208,9.236-19.516,10.3604-3.373.4819-7.549.3213-9.316,3.2125-3.373,5.381,6.585,11.1635,5.14,17.3476-15.019-8.995-31.483-15.7413-48.75-18.7932-8.915-1.6063-18.071-2.1685-27.146-1.7669-4.417.1606-8.834.6425-13.252,1.285-4.578.7228-11.003,2.6504-15.42.4819-3.775-1.9275-7.308-4.4172-11.003-6.3447-1.606-.8835-3.453-1.8472-5.3-2.1685-1.285-.1606-2.249.3213-3.373.8835-3.133,1.6062-6.506,2.57-9.236,4.9794-4.016,3.5337-5.783,8.8344-8.112,13.5729-3.132,6.2644-7.63,11.806-13.011,16.3035-1.365,1.1244-2.811,2.2488-3.775,3.6944-.963,1.526-1.365,3.5338-.481,5.0597c1.606,2.6504,5.702,2.0078,8.111.1606c2.41-1.9275,4.096-4.7384,6.827-6.1037c2.891-1.526,6.425-1.2047,9.236-2.8913s4.256-5.0597,6.907-7.0675c1.927-1.4457,4.417-2.0882,6.746-2.6504c2.409-.5622,4.819-1.2047,7.228-1.7669c2.249-.5622,4.417-.9637,6.506-2.1684c7.549,4.0156,73.566,6.9872,37.586,15.661-8.192,2.0078-16.785,7.951-23.532,12.7698-5.782,4.1763-10.842,8.995-15.741,14.055-3.534,3.534-7.469,6.826-11.083,10.2-7.389,6.826-14.858,13.653-22.247,20.479-8.352,7.71-16.946,15.581-22.166,25.7-7.469,14.457-10.2,31.162-12.368,47.144-1.446,10.842-2.169,22.247,1.927,32.286c2.65,6.425,7.068,11.967,11.645,17.187c27.548,31.724,61.922,57.343,100.151,74.771c14.456,6.586,31.804,12.047,47.625,7.951c3.775-.963,7.148-2.971,10.843-4.096c2.489-.803,5.14-.883,7.71-1.285c7.951-1.285,15.902-4.738,23.451-7.629c14.778-5.703,30.198-13.252,38.791-27.226c5.381-8.835,7.389-19.195,9.316-29.315c1.366-7.308,2.731-14.617,4.177-21.925c1.204-6.265,1.606-12.127,4.738-17.83c2.811-4.979,3.373-10.28,8.433-14.054c9.236,8.995,12.127,22.889,11.324,35.739-.482,7.71-1.606,16.625,3.936,21.925c3.935,3.775,9.958,4.257,15.42,4.418c2.168.08,4.497,0,6.103-1.366.884-.723,1.446-1.686,1.928-2.65c1.365-3.614,1.928-7.389,1.687-11.164Z" fill="#f8f1e9"/><path d="M271.001,260.067c-.241,6.746-11.164,11.243-14.939,17.99-5.059,8.995-13.251,13.01-20.479,19.436-5.542,4.899-12.288,8.111-18.633,11.806-8.754,5.059-17.669,12.368-18.873,22.407-1.205,10.039,10.761,20.64,18.953,14.697c4.739-3.453,5.944-10.441,10.923-13.332c2.891-1.686,6.586-1.686,9.638-3.052c8.191-3.855,8.513-15.58,14.697-22.166c5.06-5.381,13.412-6.425,20.56-4.578s13.332,6.184,19.355,10.521c15.019,10.682,31.644,24.094,31.965,42.486.241,14.938-10.521,27.467-17.91,40.397-1.606,2.811-3.132,5.943-2.811,9.236.884,9.477,15.742,10.28,22.568,3.614c6.827-6.666,9.236-16.625,15.099-24.094c2.972-3.774,6.987-7.067,8.272-11.725c1.044-3.695.081-7.71.884-11.485c1.445-6.747,8.192-11.164,14.938-13.011c6.666-1.847,13.814-2.008,20.319-4.337c6.827-2.409,12.77-7.228,16.705-13.332c2.49-3.774,8.353-14.296,3.052-17.669-3.212-2.088-7.63-3.132-11.163-4.497-4.498-1.847-8.996-3.614-13.573-5.461-21.685-8.674-43.289-17.348-64.974-26.022-14.376-5.782-28.832-11.565-43.208-17.347-.402-.161-.883-.322-1.365-.482Zm65.776-5.542c-.723-.642,1.044-.642,1.285-.883-.401.401-.883,2.007-1.285.883Z" fill="#f8f1e9"/><path d="M359.589,106.829c-65.054-2.168-119.506,48.831-121.675,113.884-2.168,65.054,48.831,119.506,113.884,121.674c65.054,2.169,119.506-48.83,121.674-113.883c2.169-65.054-48.83-119.506-113.883-121.675ZM353.886,278.78c-29.956-.964-53.408-26.022-52.444-55.979.964-29.956,26.021-53.408,55.978-52.444s53.408,26.021,52.444,55.978c-.963,29.957-26.021,53.489-55.978,52.445Z" fill="#eec78c"/><path d="M255.584,286.65c8.273-4.337,16.545-9.075,22.568-16.143c2.169-2.49,4.016-5.3,6.425-7.549c6.104-5.783,14.939-7.389,23.131-9.156.642-.161,1.365-.321,2.007-.482-5.541-8.834-8.593-19.355-8.192-30.599.322-10.2,3.454-19.596,8.594-27.628-4.096.241-8.192,1.526-11.645,3.534-7.791,4.417-13.332,11.806-18.954,18.713-5.622,6.987-11.726,13.974-19.998,17.428-3.132,1.365-6.586,2.088-9.638,3.534-4.015,1.847-7.308,4.899-9.798,8.513c2.731,14.456,8.031,27.868,15.5,39.835Z" fill="#cf9a5f"/><path d="M467.529,187.303c-6.023-3.774-12.288-7.148-17.669-11.725-5.06-4.337-9.236-9.638-13.733-14.537-12.369-13.412-27.949-24.014-38.551-38.872-2.57-3.533-4.818-7.388-7.87-10.521-9.557-2.891-19.677-4.577-30.118-4.899-16.303-.562-31.964,2.249-46.26,7.791c1.606,1.847,3.935,3.373,6.265,4.256c4.979,1.848,10.601,2.249,14.777,5.622c2.49,2.008,4.096,4.819,6.345,7.068c3.614,3.694,8.995,6.666,9.156,11.725.24,6.586-8.353,9.718-11.325,15.661-2.168,4.337-1.044,9.317-.321,14.296c6.024-2.088,12.529-3.052,19.275-2.811c28.03.964,50.357,22.97,52.284,50.276c3.855-3.453,8.594-6.345,13.091-8.834c1.606-.884,3.534-1.767,5.22-.964c1.366.723,1.928,2.409,2.731,3.694c3.293,5.703,11.083,6.104,17.508,7.71c5.542,1.366,10.762,4.096,14.698,8.192c3.533,3.614,5.943,8.112,9.075,12.047.723-4.578,1.124-9.316,1.285-14.054.562-14.296-1.606-28.19-5.863-41.121Z" fill="#cf9a5f"/><path d="M357.34,300.625c5.381-6.506,12.931-10.762,19.597-15.902c5.059-3.936,12.528-10.682,12.769-17.91-9.798,7.871-22.246,12.368-35.739,11.967-9.878-.322-19.114-3.293-26.985-8.192-3.454,3.855-6.505,8.111-9.397,12.448-5.622,8.433-11.003,17.187-14.135,26.905-2.008,6.104-3.052,12.609-2.65,18.954c13.171,6.907,27.788,11.485,43.369,13.011.562-1.928.883-4.016,1.205-5.944c2.007-12.448,4.015-25.619,11.966-35.337c0,.08,0,.08,0,0Z" fill="#cf9a5f"/><path d="M506,302.392l-7.791-11.244-2.409-59.191c-.161-3.293-1.366-6.425-3.454-8.914-6.987-8.353-23.05-27.467-25.941-29.234L390.67,126.024l-10.601-9.236c-5.542-4.818-11.726-8.754-18.392-11.725L331.72,91.8915c-2.168-.9638-4.497-1.526-6.826-1.6866l-53.248-4.096-7.228-7.951c-2.65-2.0078-6.184-2.329-9.156-.9637l-14.376,6.666c-1.445.6425-1.686,2.6503-.482,3.6944l6.827,5.7022-3.614,2.0078-9.477.3213c-1.205.0803-2.168,1.044-2.249,2.2487-.08,1.2047.884,2.2484,2.088,2.3294l10.762.963l15.42,2.33c1.848.321,3.775.08,5.542-.563l7.469-2.65l43.048,8.031c2.249.402,4.417,1.366,6.345,2.651l39.514,25.057-15.902,45.698-12.529,16.304-5.622,4.096c0,0-20.4,1.205-26.423,9.637c0,0-27.708,20.32-30.439,26.343c0,0-30.117,14.135-52.364,46.26l-17.749,13.493-19.837,11.485c-2.41,1.365-4.337,3.533-5.462,6.104-1.124,2.57-1.526,5.38-1.044,8.111l.563,3.373c1.847,3.454,5.702,5.381,9.557,4.658l8.031-4.979c0,0,19.034-20.239,25.459-21.765c0,0,10.762-3.935,10.923-9.316c0,0,14.697-11.083,23.692-16.545c0,0,13.894-3.453,30.359-21.202L342.643,237.9l-19.436,51.642c0,0-11.083,21.765-13.011,36.141c0,0-2.409,17.106-7.308,34.213l-8.995,9.798c0,0-6.827,10.2-14.778,20.4l-8.192,8.272c-.963.964-1.285,2.329-.883,3.614.482,1.365,1.686,2.409,3.132,2.49l14.858.963c3.373.241,6.746-.883,9.316-3.212l12.609-21.203l4.257-3.774c1.365-1.205,2.249-2.731,2.57-4.498l.321-10.119c0,0,23.532-35.258,30.359-59.673l34.615-33.491c0,0,7.629-6.987,8.191-24.254l10.602-23.773l27.708-22.246c0,0,25.379,21.443,47.384,32.205l6.425,56.219v9.557l-7.71,14.216c-.883,1.606.322,3.453,2.089,3.453.642,0,1.285-.321,1.686-.883l5.783-8.594l3.052,8.915l13.171,2.329h.803c2.409.081,4.578-1.365,5.542-3.534c1.767-3.533,1.365-7.549-.803-10.681Z" fill="#fae7d0"/><g opacity="0.3"><path d="M175.993,314.84c0,0,0,.08-.081.08-.08.161-.16.241-.16.402-.081.241-.241.482-.322.723c0,0,0,.08-.08.08-.08.241-.161.482-.241.723c0,.08,0,.08,0,.161-.08.24-.161.481-.241.803c0,0,0,0,0,.08-.08.241-.161.562-.161.803-.08.241-.08.562-.08.803v.081c0,.24-.08.562-.08.803c0,.562,0,1.204,0,1.767c1.606-.964,3.052-2.57,4.256-4.016c5.944-7.148,13.332-13.252,21.444-17.749c6.827-3.775,14.296-6.506,20.239-11.565c4.096-3.454,7.308-7.871,10.601-12.128c10.602-13.573,23.452-26.423,39.916-31.241c1.285-.402,2.65-.723,3.855-1.366c1.606-.883,2.811-2.329,3.935-3.774c5.14-6.265,10.28-12.449,15.42-18.713c4.257-5.14,9.557-10.762,16.143-10.12c3.695.321,7.71,2.651,10.923.643c1.365-.803,2.168-2.249,3.052-3.534c2.168-2.972,5.059-5.381,8.352-6.987c1.687-.803,3.534-1.044,5.221-1.767c1.285-.562,2.329-1.606,3.774-2.169c3.213-1.204,6.506-2.088,9.879-2.409.803-.08,1.767-.241,2.248-.803.482-.643.482-1.526.081-2.249-.321-.723-.884-1.285-1.366-2.008-2.007-2.891-2.168-6.746-1.285-10.119.643-2.49,2.169-4.417,2.33-6.907.321-3.775-.643-8.192.642-11.806c1.446-4.337,5.14-7.389,5.702-12.127.161-1.205.081-2.49.402-3.695.482-2.168,2.168-4.015,4.256-4.819.964-.321,2.089-.481,2.972-1.124.883-.642,1.124-2.088.241-2.65-2.972-1.847-5.863-5.221-8.674-7.63-3.293-2.811-6.505-5.702-9.798-8.513-5.381-4.739-11.324-8.192-17.508-11.886-2.651-1.607-5.462-3.374-6.827-6.185-.803-1.606-1.526-3.8546-3.293-3.694-.16,2.329-3.052,3.293-5.381,3.534-9.396,1.044-18.873.321-28.029-2.088-5.702-1.446-11.163-3.3735-16.946-3.9357-5.22-.5622-10.762,1.0441-16.143.9638-4.337-.0803-8.674-.1607-13.011-.1607-.642,0-1.204,0-1.847.0804-.642.1606-1.285.4015-1.927.5622-2.249.6425-4.819.1606-6.666-1.2047-.081.2409-.081.4818-.161.6425-.08,1.2047.884,2.2487,2.088,2.329l10.762.9642l15.42,2.329c1.847.321,3.775.08,5.542-.563l1.124-.401c.161-.08.322-.161.482-.241c1.767-.883,3.935-1.365,5.863-2.0078l43.048,8.0308c.321.081.562.081.883.161.482.08.964.241,1.446.402.401.16.883.321,1.285.482.964.401,1.927.963,2.811,1.525l39.514,25.058-10.923,31.483-4.979,14.215-12.288,16.786-4.739,3.453-.883.643c0,0-3.132.16-7.228.883-.161,0-.402.08-.562.08-.322.081-.643.081-.964.161s-.723.161-1.044.241c-.884.161-1.847.401-2.731.642-.562.161-1.124.322-1.686.482-.402.081-.723.241-1.125.322-.16.08-.401.16-.562.16-4.257,1.446-8.272,3.534-10.441,6.586c0,0-3.533,2.57-8.192,6.184-.08.08-.16.08-.241.161-.321.241-.722.562-1.044.803-.08.08-.16.08-.241.16-1.606,1.285-3.373,2.651-5.14,4.096-.08.081-.16.081-.16.161-.402.321-.803.642-1.205.964-.08.08-.08.08-.16.16-.402.322-.804.643-1.205.964-2.731,2.249-5.381,4.498-7.55,6.586-1.526,1.365-2.73,2.73-3.694,3.774-.161.161-.321.402-.482.563-.08.08-.161.16-.241.241-.321.481-.642.883-.803,1.204-.08.081-.08.161-.161.322c0,0-12.127,5.702-26.583,17.99-.884.722-1.767,1.526-2.651,2.248l-.08.081c-.723.642-1.445,1.285-2.088,1.927-.402.321-.723.723-1.124,1.044-3.293,3.132-6.747,6.586-10.039,10.441-.402.402-.723.883-1.125,1.285-2.971,3.453-5.863,7.148-8.593,11.163l-8.032,6.185-9.798,7.469-19.837,11.484c-.482.241-.884.563-1.285.884-.723.482-1.365,1.124-1.928,1.767-.241.241-.482.562-.642.803-.402.482-.723.964-.964,1.526-.161.08-.321.321-.401.562Z" fill="#f77f00"/></g><path d="M495.638,330.902c-1.124.402-2.329-.241-2.731-1.365l-7.067-20.48l6.184-2.168l4.979,21.363c.241,1.205-.321,2.249-1.365,2.65Z" fill="#fae7d0"/><path d="M503.431,332.911c-1.124.401-2.329-.241-2.731-1.366l-7.067-20.48l6.184-2.168l4.979,21.363c.322,1.205-.241,2.329-1.365,2.651Z" fill="#fae7d0"/><path d="M510.819,327.851c-1.044.562-2.329.241-2.972-.803l-10.521-18.954l5.702-3.213l8.594,20.239c.562,1.044.161,2.249-.803,2.731Z" fill="#fae7d0"/><path d="M514.996,321.666c-.964.723-2.329.482-3.052-.482l-12.93-17.347l5.3-3.936l11.244,18.874c.643.964.321,2.168-.562,2.891Z" fill="#fae7d0"/><g opacity="0.3"><path d="M479.175,313.153c.803-1.204,1.606-2.489,2.49-3.694.482-.642.883-1.365,1.365-2.008l.884-1.285c.08-.16.08-.241.16-.401l.241-.241.161-.241l3.052,8.915h.08l5.301,15.259c.321.964,1.204,1.526,2.168,1.446c0-.161,0-.322,0-.482c0-1.847-.723-3.614-1.124-5.381-.723-3.534-.161-7.389-1.446-10.762c0-.08-.08-.161-.08-.241-.402-1.124-1.044-2.008-1.687-3.052-.241-.321-.241-.803-.482-1.124-1.526-2.49-2.57-5.14-3.533-7.871-.563-1.446-1.044-2.972-.884-4.498.241-1.766,1.365-3.292,1.526-4.979.161-1.767-.723-3.453-1.446-5.06-1.445-3.293-2.409-6.746-3.051-10.28-.723-4.337-.964-8.834-1.044-13.251-.081-8.032.401-16.063-.563-24.014-.562-4.417-1.526-8.834-1.204-13.252.08-.803-.081-1.927-.884-2.007-.16,0-.401,0-.562.08-2.168.642-3.935,1.606-6.104.562-1.927-.883-3.694-2.249-5.381-3.534-6.184-4.979-12.368-9.959-18.552-14.858-3.534-2.811-7.148-4.176-10.923-6.425-3.694-2.168-6.907-5.14-9.236-8.754-.241-.321-.482-.723-.803-.803-.883-.401-1.686.723-2.088,1.687-1.205,3.052-1.686,5.3-4.337,7.308-2.971,2.249-5.782,4.819-8.593,7.228-1.928,1.687-3.132,4.096-5.221,5.703-4.337,3.453-10.36,4.979-15.741,3.533-1.285-.321-2.57-.883-3.855-1.204-.482-.161-1.044-.161-1.365.16-.482.562.16,1.366.722,1.847c2.571,2.169,4.177,5.381,4.659,8.674.16,1.285.562,3.213.401,4.417-.241,1.687-2.008,2.731-2.971,4.016-1.526,2.008-1.526,4.658-1.607,7.148-.16,4.819-1.124,10.119-2.811,14.697-1.606,4.417-5.943,7.71-10.601,8.112-.803.08-1.606.08-2.168.642-.482.482-.563,1.285-.563,1.928-.24,5.622-.722,8.915-4.015,13.492-3.052,3.133-7.148,4.9-10.762,7.309-3.614,2.329-5.461,5.542-7.63,9.236-1.285,2.249-3.614,4.417-6.104,3.935-2.248-.482-4.256-3.052-6.425-2.168c4.177,8.433-.16,18.392-4.497,26.744-4.658,9.075-9.317,18.07-13.975,27.146-1.124,2.168-2.329,4.417-4.497,5.381-1.928.883-5.06,1.365-4.819,3.453.08.803.723,1.446,1.205,2.088c1.927,2.731,1.124,6.506,0,9.638-4.578,12.93-13.172,24.335-24.255,32.366h.562l1.848.161c.401,0,.803,0,1.204,0c.161,0,.241,0,.402,0c.241,0,.562,0,.803-.081.161,0,.321-.08.482-.08.241,0,.482-.08.723-.161.16,0,.321-.08.482-.08.24-.08.481-.16.722-.16.161-.081.322-.081.482-.161.241-.08.482-.161.643-.241.16-.08.241-.08.401-.161.241-.08.482-.241.723-.401.08-.081.241-.081.321-.161.322-.241.643-.401.964-.642s.643-.482.964-.803l12.609-21.203l4.257-3.775c.321-.321.642-.642.883-.964.161-.16.241-.321.402-.562.401-.562.722-1.124.883-1.767.161-.401.241-.803.402-1.285l.321-10.119c0,0,0,0,.08-.08c0,0,0-.081.08-.081c0,0,.081-.08.081-.16c0,0,0,0,0-.081.08-.16.241-.321.401-.562l.081-.08c.08-.08.08-.161.16-.241c0-.08.081-.08.081-.161.08-.08.16-.241.241-.321c0,0,0-.08.08-.08.08-.161.241-.322.321-.562.161-.322.402-.643.643-1.045.963-1.445,2.088-3.292,3.453-5.541.241-.482.562-.884.884-1.365.24-.402.481-.804.722-1.205.402-.643.723-1.205,1.125-1.847.401-.643.803-1.285,1.204-2.008.322-.562.643-1.125.964-1.687.241-.482.562-.964.803-1.445.402-.723.803-1.446,1.285-2.169.402-.723.884-1.526,1.285-2.249.643-1.124,1.285-2.329,1.928-3.533.241-.402.401-.803.642-1.205.322-.562.643-1.205.964-1.767.08-.08.161-.241.161-.321.321-.562.642-1.125.883-1.767.08-.08.08-.161.161-.321.321-.563.562-1.125.883-1.687c0-.08.081-.161.081-.161.321-.562.562-1.204.883-1.766.08-.161.161-.241.161-.402.321-.562.562-1.205.883-1.767c0-.08.08-.161.08-.161.241-.562.563-1.124.803-1.686.081-.08.081-.241.161-.321.321-.563.562-1.205.803-1.767.081-.161.081-.241.161-.402.562-1.204,1.124-2.489,1.606-3.694.08-.161.08-.241.161-.402.241-.562.482-1.204.723-1.767.08-.08.08-.16.16-.321.241-.562.482-1.124.643-1.686c0-.081.08-.161.08-.161.241-.562.482-1.205.643-1.767.08-.161.08-.241.16-.402.241-.562.402-1.204.643-1.766c0-.081.08-.161.08-.161.161-.562.402-1.044.562-1.606c0-.081.08-.161.08-.322.161-.562.402-1.124.563-1.686c0-.08.08-.241.08-.321.161-.563.321-1.125.482-1.687l25.62-24.817l8.995-8.673c0,0,.723-.643,1.767-2.169.08-.161.241-.321.321-.482.241-.321.482-.642.723-1.044.08-.161.241-.401.321-.642.161-.241.241-.482.402-.723.16-.241.24-.482.401-.723c0-.08.08-.161.08-.241.081-.161.161-.402.322-.642c0-.081.08-.161.08-.241.08-.241.161-.402.321-.643c0-.08.081-.161.081-.241.08-.241.16-.482.321-.723c0-.08.08-.16.08-.241.08-.241.241-.562.321-.803c0-.08.081-.16.081-.16.08-.322.241-.563.321-.884c0-.08,0-.08.08-.16.081-.322.241-.643.321-1.044v-.081c.081-.401.241-.803.322-1.205.08-.16.08-.321.08-.481.08-.402.161-.804.241-1.125.08-.401.161-.803.241-1.204v-.081c.08-.401.161-.803.241-1.204c0-.081,0-.081,0-.161.08-.402.161-.723.161-1.124c0-.081-.001-.241.08-.322.08-.321.08-.642.16-1.044c0-.16,0-.321.081-.562c0-.321.08-.562.08-.883c0-.241.08-.563.08-.884c0-.241,0-.401.081-.642c0-.482.08-1.044.08-1.607l10.601-23.772l27.708-22.247c0,0,0,0,.081.08c0,0,.08.081.16.161c0,0,0,0,.081,0c.08.08.16.161.321.241l.08.08c.08.081.241.161.321.241.081,0,.081.08.161.08.161.161.321.241.562.402.081,0,.08.08.161.08.16.161.321.241.482.402.08.08.16.08.241.161.241.16.482.401.722.562.081.08.081.08.161.16.241.161.482.402.723.563.08.08.161.16.241.16.321.241.642.482.964.723.08,0,.08.08.16.08.321.241.562.482.884.723.08.08.16.161.241.241.401.321.722.562,1.124.883.402.322.883.723,1.365,1.045.402.321.884.642,1.285.963.161.081.241.161.402.322.321.241.642.481,1.044.803.161.08.321.241.401.321.964.723,1.928,1.446,2.972,2.168.161.081.321.241.482.322.402.321.803.562,1.124.883.161.08.322.241.482.321.964.723,2.008,1.446,2.972,2.169.321.241.642.482.964.642.24.161.481.402.803.562.883.563,1.686,1.205,2.57,1.767.723.482,1.526,1.044,2.248,1.526.241.161.482.322.723.482.562.321,1.044.723,1.607,1.044.241.161.562.322.803.562.562.322,1.044.723,1.606,1.045.241.16.482.321.723.481.803.482,1.606.964,2.329,1.446.482.321.964.562,1.445.883.723.402,1.446.884,2.169,1.286.161.08.321.16.482.24.883.482,1.686.964,2.57,1.446.241.161.401.241.642.321.643.402,1.366.723,2.008,1.044.241.161.482.241.723.402.883.482,1.687.883,2.57,1.285.482.241.562,4.899.642,5.381.241,2.329.563,4.658.804,7.067l4.979,43.771v9.557l-7.71,14.216c-.321.562-.321,1.204-.161,1.767.161.481.402.883.803,1.204.161.081.322.241.482.322.322.08.563.16.964.16.161,0,.321,0,.482-.08.482-.08.883-.402,1.205-.803.321.241.482-.081.642-.322Z" fill="#f77f00"/></g><path d="M426.65,152.045c1.767-5.943.482-5.3-1.767-11.003-.722-1.847-1.445-3.774-2.811-5.3-1.044-1.205-2.329-2.088-3.774-2.811-9.959-5.14-17.99,0-25.941,6.746-6.586,5.622-12.208,13.412-16.143,22.086-1.767,3.855.562,5.943,3.533,9.076.482.481.402,4.899,2.57,6.425c2.249,1.686,4.98.562,5.783,1.204c6.746,5.221,13.974-.562,18.633-3.373c11.565-7.148,16.062-10.36,19.917-23.05Z" opacity="0.3" fill="#f77f00"/><path d="M426.009,158.952c0,0-35.338,15.661-49.634,37.908-.321.562-.562,1.446-.562,2.49-.321,6.826,4.899,12.689,11.645,13.412l21.444,2.409c0,0-21.926-26.503,17.107-56.219Z" fill="#fff"/><path d="M391.635,129.639c0,0-2.891,33.169-19.195,64.411-.321.642-1.365,1.124-2.891,1.526-8.353,2.088-16.705-3.454-18.151-11.967l-1.927-11.244c0,0,17.669,17.428,42.164-42.726Z" fill="#fff"/><path d="M328.023,202.081c0,0,21.042,32.205,62.404,43.208c0,0,1.124,3.855-.241,3.775-13.172-.322-45.698-8.112-53.569,4.497l-.241-.08c-4.176-2.008-7.63-5.301-9.798-9.397c0,0,7.549-6.184-2.731-41.602-.241-1.044,4.337.803,4.176-.401Z" fill="#fff"/><path d="M366.979,196.057c0,0,9.476.884,9.155,6.827l.964-7.228c0,0-4.979,2.811-4.739-1.607l-5.38,2.008Z" fill="#fff"/><path d="M364.41,171.963c-1.686,1.125-3.292,1.767-4.738,2.249l4.497,21.765c1.687.241,3.374.161,5.14-.241l-4.899-23.773Z"/><path d="M354.932,174.694c-3.534-.321-5.541-2.249-5.541-2.249l.803,4.739l1.927,9.477c1.285,3.293,3.775,6.023,6.747,7.629l-3.936-19.596Z"/><path d="M380.551,152.849c-1.366,2.329-2.651,4.337-3.936,6.184l3.614,17.508c1.205-3.212,2.329-6.344,3.293-9.316l-2.971-14.376Z"/><path d="M377.017,184.493l-4.176-20.32c-1.446,1.767-2.892,3.293-4.257,4.578l4.819,23.452c1.285-2.57,2.489-5.14,3.614-7.71Z"/><path d="M378.625,193.568c-.803,1.044-1.526,2.168-2.249,3.212-.321.563-.562,1.446-.562,2.49-.241,4.899,2.409,9.316,6.425,11.726l-3.614-17.428Z"/><path d="M390.914,180.878l6.827,33.009l5.3.562-7.71-37.185c-1.445,1.205-2.971,2.41-4.417,3.614Z"/><path d="M408.019,215.092l.883.08c0,0-.562-.643-1.285-1.847l.402,1.767Z"/><path d="M382.559,188.91l4.899,23.853l5.3.562-5.943-28.832c-1.445,1.445-2.891,2.891-4.256,4.417Z"/><path d="M402.076,172.445c-.803.562-1.687,1.125-2.57,1.767l3.534,17.267c.482-3.132,1.445-6.505,3.132-10.039l-1.928-9.477-2.168.482Z"/><path d="M348.911,246.012l.884.161c0,0-.482-1.125-1.205-3.132l.321,2.971Z"/><path d="M335.176,210.996l3.052,28.671l4.417-1.686-2.49,6.585l3.855.643-2.971-28.19c-2.329-2.168-4.257-4.257-5.863-6.023Z"/><path d="M329.555,204.25c-1.044-1.366-1.526-2.169-1.526-2.169.08.964-2.972-.08-3.855.08l.16,1.767c6.345,22.488,5.381,32.768,3.936,37.185l.16,1.365l1.607.322l3.453-1.366-3.935-37.184Z"/><path d="M364.005,234.366c-.964-.562-1.928-1.124-2.892-1.686-.08.16-.16.321-.241.562-.401.964-.562,2.49-.642,4.417-.08,3.132.161,6.184.723,8.915c1.445.08,2.891.16,4.256.241l-1.204-12.449Z"/><path d="M385.127,243.683c-1.847-.562-3.614-1.205-5.381-1.928l.643,6.425c1.847.241,3.614.402,5.3.563l-.562-5.06Z"/><path d="M374.686,239.748c-1.847-.803-3.695-1.687-5.461-2.57l1.044,9.959c1.767.16,3.533.321,5.3.562l-.883-7.951Z"/><path d="M388.581,136.866c-4.417,9.959-8.593,17.428-12.448,22.97c0,.321,0,.643,0,.883c0,4.257.562,5.944,3.534,9.076.401.401.401,2.891,1.365,4.819c6.104-16.625,8.834-31.724,9.959-39.514-.884.642-1.687,1.204-2.41,1.766Z" opacity="0.2" fill="#6b1918"/><path d="M425.849,159.033c-1.928.884-19.035,8.754-33.732,20.882c4.658,1.927,8.353.321,12.368-1.125c1.446-.482,2.811-1.044,4.096-1.526c3.534-5.782,8.995-11.886,17.187-18.15l.081-.081Z" opacity="0.2" fill="#6b1918"/><path d="M428.016,155.258c1.767-5.943.401-11.324-1.767-17.027-.723-1.847-1.446-3.774-2.811-5.3-1.044-1.205-2.329-2.088-3.775-2.811-9.959-5.14-22.728-.884-30.679,5.863-6.586,5.622-11.485,13.974-11.405,22.969c0,4.257.321,6.184,3.534,9.076c2.891,2.57,1.124,5.38,2.57,6.425c1.124.803,3.132-.884,5.782,1.204c6.747,5.221,11.325,3.132,16.465,1.366c12.207-4.337,18.231-8.995,22.086-21.765Z" fill="#fae7d0"/><path d="M398.188,181.29l-23.704-21.563-.864.95l23.703,21.563.865-.95Z" fill="#eec78c"/><path d="M373.645,160.72c0,0,6.264,13.733,9.476,8.674l-9.476-8.674Z" fill="#003049"/><path d="M387.861,173.569c-4.177,4.498,9.477,8.674,9.477,8.674l-9.477-8.674Z" fill="#003049"/><path d="M373.645,160.719l5.461-10.441.883,1.446-4.658,10.521-1.686-1.526Z" fill="#eec78c"/><path d="M397.335,182.324l14.376-9.557-1.526-.964-14.537,8.914l1.687,1.607Z" fill="#eec78c"/><path d="M386.894,163.209c-15.742-10.441-11.485-24.415,2.007-33.972c4.096-16.705-12.93-28.592-16.383-43.3694c10.119-1.6866,17.668,16.6244,25.459,2.8912c2.49-1.7668,4.015-8.1919,7.308-7.2281c10.923,14.2957,12.69.4015,21.123-4.9794c6.425,6.6659,16.062,6.7463,25.138,5.7825-5.542,14.8579,5.14,18.7132,17.508,20.5602c2.249,6.345.642,16.303,9.718,19.355c23.049,5.622-23.291,9.799-4.337,37.346c17.588,24.013-29.395-7.951-43.209.803-19.034,14.055-22.648,20.319-44.332,2.811Z"/><path d="M368.745,236.695L346.096,263.44c-4.738,5.541-9.878,10.681-15.42,15.42l-32.125,27.146c-4.176,3.533-10.2,3.533-14.376,0-4.256-3.615-5.14-9.718-2.249-14.457l22.167-35.097c3.293-5.22,6.987-10.199,11.003-14.938l24.816-29.234c6.747-7.951,18.713-8.914,26.664-2.168c7.951,6.666,8.915,18.632,2.169,26.583Z" fill="#cf9a5f"/><path d="M366.577,210.031c-4.658-3.935-10.682-5.22-16.223-4.096c2.971.643,5.943,2.008,8.432,4.096c7.951,6.747,8.915,18.713,2.169,26.664L338.307,263.44c-4.739,5.541-9.879,10.681-15.42,15.42l-32.126,27.145c-.963.804-2.088,1.446-3.212,1.928c3.694,1.365,7.87.723,11.083-1.928l32.125-27.145c5.542-4.658,10.682-9.879,15.42-15.42l22.649-26.745c6.666-7.951,5.702-19.917-2.249-26.664Z" fill="#cf9a5f"/><path d="M288.594,281.028l-6.586,10.521c-2.971,4.658-2.008,10.843,2.249,14.457c4.176,3.533,10.2,3.533,14.376,0l9.316-7.871c-9.236-1.767-16.544-8.433-19.355-17.107Z" fill="#fff"/><path d="M284.176,305.925c3.936,3.293,9.558,3.534,13.654.563-8.192-1.125-14.457-7.791-15.26-15.983l-.642.964c-2.892,4.739-1.928,10.923,2.248,14.456Z" fill="#eeeae5"/><path d="M348.186,260.95c-.08-.24-.241-.481-.482-.722-2.249-2.41-8.754,0-14.456,5.381-5.703,5.381-8.594,11.645-6.345,14.054.402.482.964.723,1.687.884l2.088-1.767c5.541-4.658,10.681-9.879,15.42-15.42l2.088-2.41Z" fill="#fff"/><path d="M345.212,264.404c-.081-.161-.161-.321-.321-.482-1.526-1.606-5.863,0-9.718,3.614s-5.783,7.871-4.257,9.477c.321.321.643.482,1.124.562l1.366-1.205c3.774-3.132,7.228-6.666,10.36-10.36l1.446-1.606Z" fill="#eeeae5"/><path d="M304.095,256.453l-2.49,3.935c3.052,0,7.711-2.329,11.967-6.345c5.702-5.381,8.594-11.645,6.345-14.055-.643-.642-1.606-.963-2.731-.883l-2.008,2.409c-4.096,4.658-7.79,9.718-11.083,14.939Z" fill="#fff"/><path d="M305.779,253.963l-1.767,2.811c2.168,0,5.541-1.687,8.593-4.498c4.096-3.855,6.184-8.352,4.578-10.119-.482-.482-1.124-.723-2.008-.643l-1.445,1.767c-2.972,3.293-5.542,6.907-7.951,10.682Z" fill="#eeeae5"/><path d="M415.889,148.913c5.622-3.132,11.967-4.739,18.151-6.506c3.293-.963,6.586-2.007,9.718-3.453c2.65-1.205,5.943-2.65,8.112-4.658c2.007-1.928,4.015-4.257,5.862-6.345c3.695-4.256,6.345-9.477,7.47-15.018-3.695,7.147-8.032,14.295-14.377,19.275-2.971,2.329-6.264,4.096-9.637,5.863-3.855,2.007-7.951,3.051-12.127,4.256-4.418,1.285-8.754,2.651-12.85,4.739-4.498,2.329-9.397,4.497-12.128,8.995-2.971,4.818-2.73,11.404-2.007,16.865.562.161,1.044.322,1.525.482-.562-4.176-.562-8.433.884-12.368c2.008-5.461,6.505-9.397,11.404-12.127Z" fill="#eec78c" fill-opacity="0.2"/><path d="M381.837,154.535c.161-1.927.643-3.855.884-5.059c1.124-4.819,3.453-8.674,6.104-12.77c4.176-6.265,6.987-14.457,7.308-22.006.08-3.132-.321-6.345-1.365-9.316-.482-1.366-1.044-3.132-1.928-4.337-.642-.884-2.088-1.5261-2.49-2.4899.643,1.6059.402,3.3729.643,5.1399.161,1.687.562,3.213.964,4.899.321,1.607.642,3.293.963,4.899.402,1.848.723,3.614.804,5.542.16,5.542-2.651,11.565-5.622,16.143-2.329,3.694-5.301,6.987-7.068,11.083-.883,2.088-1.365,4.337-1.205,6.586.081,1.686.402,3.293.884,4.818.723.884,1.526,1.687,2.409,2.571-1.365-1.205-1.526-3.454-1.285-5.703Z" fill="#eec78c" fill-opacity="0.2"/><path d="M446.41,151.082c3.694-1.044,7.309-2.57,10.601-4.578c1.687-1.044,2.651-1.606,3.614-3.293c1.045-1.927,2.008-3.775,3.052-5.702c2.49-4.578,4.98-9.316,5.14-14.537-.401,1.687-1.204,3.293-1.927,4.819-2.49,5.06-5.22,10.119-8.915,14.296-2.57,2.891-5.622,5.3-9.156,6.907-3.533,1.606-7.388,1.686-11.163,2.007-4.819.322-9.557.643-14.215,1.928-.563.161-1.205.321-1.767.562-3.695,1.446-7.068,4.498-9.477,7.55-1.687,2.248-3.052,4.818-3.936,7.469-.481,1.606-.963,3.533-.883,5.381.482,0,.964,0,1.526-.081.241-1.847.482-3.533,1.205-5.3.963-2.41,2.088-4.819,3.373-7.148c1.044-2.008,3.453-3.213,5.3-4.417c2.41-1.607,5.14-2.731,8.032-3.374c3.373-.722,6.826-.803,10.28-1.044c3.132-.241,6.264-.562,9.316-1.445Z" fill="#eec78c" fill-opacity="0.2"/><path d="M398.543,158.792c1.927-5.221,5.22-10.039,9.557-13.573c2.57-2.169,5.542-3.695,8.433-5.381c3.052-1.847,5.943-3.936,8.754-6.104c2.731-2.168,5.381-4.417,8.031-6.666c1.928-1.606,4.016-3.213,5.301-5.301c1.285-2.168,2.65-4.176,3.694-6.505.964-2.329,1.687-4.819,2.249-7.308.241-1.205.482-2.41.562-3.695.161-.964-.08-2.57.322-3.453-4.418,10.762-10.682,20.72-18.472,29.394-2.731,3.052-6.506,5.462-9.959,7.63-6.506,4.096-14.617,7.469-18.874,14.215-1.847,2.972-2.65,6.345-2.971,9.799-.161,1.766-.241,3.453-.322,5.22c0,.562-.24,1.526.081,2.008.16.401,1.606.803,1.606,1.124-.08-3.935.643-7.79,2.008-11.404Z" fill="#eec78c" fill-opacity="0.2"/><path d="M388.103,163.691c.562.161,1.044,0,.562-.883-1.204-2.249-2.008-4.658-2.409-7.148-.402-2.409.321-3.935.964-6.264c1.526-4.739,4.417-8.835,7.71-12.609c3.453-4.096,7.228-7.951,10.039-12.529c2.73-4.418,4.658-9.317,5.863-14.376c1.124-5.06.642-9.799-.322-14.9386-.241-1.285-.642-2.7306-1.686-3.5337-.884,5.14-.562,10.3603-.723,15.5803-.241,5.863-1.847,11.726-4.738,16.866-2.972,5.301-7.309,8.594-11.566,12.77-3.373,3.293-5.461,7.79-6.184,12.448-.482,3.374-.321,6.747.402,10.04.241,1.124.482,2.891,1.205,3.855c0,.401.481.642.883.722Z" fill="#eec78c" fill-opacity="0.2"/><path d="M396.052,149.074c1.044-2.891,2.249-5.702,4.016-8.192c1.687-2.329,3.775-4.337,5.943-6.184c2.249-1.847,4.498-3.614,6.746-5.461c2.089-1.767,4.177-3.614,6.024-5.622c2.008-2.169,4.417-4.498,5.622-7.148c1.205-2.57,2.088-5.381,2.73-8.112.723-2.971,1.045-6.023.964-9.075c0-1.6063-.16-3.1322-.401-4.7385-.161-1.044-.964-3.0519-.803-4.0156-1.045,4.7384-2.089,9.5571-3.133,14.2961-.642,3.051-1.365,6.103-2.65,8.914-.883,1.848-2.088,3.614-3.373,5.301-5.381,7.228-12.368,12.689-17.99,19.596-3.695,4.498-6.345,9.799-8.112,15.34-.723,2.41-1.365,4.819-1.686,7.309-.161,1.044-.563,2.489-.402,3.533.08.482,1.526,1.848,1.526,1.767c1.446-5.943,2.972-11.806,4.979-17.508Z" fill="#eec78c" fill-opacity="0.2"/></g></g><path d="M119.91,101.505h30.905v163.848h24.019v35.272h-24.019v73.652h-35.272v-73.652h-111.69534L119.91,101.505Zm-4.367,79.614l-50.3048,84.15h50.3048v-84.15Z"/><path d="M648.354,101.505h30.821v163.848h24.019v35.272h-24.019v73.652h-35.272v-73.652h-111.696l116.147-199.12Zm-4.451,79.614l-50.305,84.234h50.305v-84.234Z"/></g><mask id="eLg8WwBP1AX65" mask-type="alpha" x="-150%" y="-150%" height="400%" width="400%"><rect width="700" height="450.04" rx="0" ry="0" transform="translate(0 0.194824)" fill="#d9d9d9"/></mask></g></svg>
