<svg width="68" height="59" viewBox="0 0 68 59" fill="none" xmlns="http://www.w3.org/2000/svg">
<g clip-path="url(#clip0_33_20)">
<path fill-rule="evenodd" clip-rule="evenodd" d="M24.3631 31.756C24.795 32.7584 25.226 33.6769 25.7409 34.5944C29.6871 41.5166 36.8107 47.3088 46.5734 49.1224C49.6871 49.6727 52.7966 49.8871 55.9851 49.6807C59.0897 49.4753 62.1041 48.7672 65.1156 47.8072C65.3665 47.7202 65.5314 47.4663 65.4444 47.2154C65.3574 46.9645 65.1034 46.7997 64.8526 46.8867C61.8391 47.6787 58.9055 48.134 55.884 48.2544C52.8624 48.3748 49.9217 48.2423 46.892 47.6911C37.6341 45.9553 30.8494 40.4109 27.243 33.8206C26.8991 33.1529 26.5551 32.4853 26.2112 31.8176C27.6385 31.8004 29.0639 31.6153 30.4042 31.3472C38.9479 29.5647 45.7618 23.6044 45.5685 14.5377C45.4167 8.91332 42.1058 5.93022 38.0666 5.22317C34.1963 4.59806 29.6806 6.16403 26.7006 9.72684C21.9806 15.242 21.1522 23.1455 23.8441 30.5026C18.4666 30.2316 12.9008 28.2834 8.57126 24.3888C5.25932 21.3218 3.28266 17.5668 2.39648 13.7148C1.68935 10.7842 1.6529 7.76164 1.95533 4.98688C2.10705 3.64148 2.17582 2.38106 2.49749 1.20156C2.49648 1.1176 2.49547 1.03363 2.41049 0.950687C2.32653 0.951699 2.24257 0.952708 2.15962 1.03768C1.67003 2.21921 1.18146 3.4847 0.860802 4.74816C0.224554 7.69489 0.346991 10.8844 1.05614 13.9828C1.94536 18.0868 4.09299 22.0916 7.65883 25.3235C12.3283 29.5498 18.3998 31.6599 24.3631 31.756ZM25.6073 30.4814C27.1186 30.4631 28.6278 30.277 30.0521 30.0079C37.9262 28.4014 44.2414 22.867 43.9733 14.5569C43.7497 9.9411 41.0336 7.53864 37.752 6.9904C34.4704 6.44216 30.6244 7.83211 27.9741 10.8871C23.501 15.9794 22.9194 23.46 25.6073 30.4814Z" fill="#D9D9D9"/>
<path fill-rule="evenodd" clip-rule="evenodd" d="M65.1955 47.4703C63.7783 48.3271 61.6945 49.6119 61.4446 49.7828L57.4449 52.3503L51.2015 56.8761C51.0346 56.9621 51.0366 57.13 51.1226 57.2969C51.1246 57.4649 51.3775 57.5458 51.5434 57.3758L58.2997 53.5995L62.4704 51.282C62.7202 51.111 65.8055 49.3104 67.0558 48.5395C67.8064 48.1106 67.9672 47.5209 67.9662 47.4369C67.9622 47.1011 67.8731 46.6823 67.2814 46.3535C66.6046 45.9418 64.5005 45.5473 64.2476 45.4664L54.1379 42.7332C50.6844 41.8512 49.5858 41.2766 49.344 42.1193C49.2621 42.2882 49.3481 42.4551 49.689 42.8709C49.774 42.9538 49.9429 43.0358 50.1118 43.1177C51.2934 43.6073 53.4824 44.0847 53.7353 44.1656L63.7651 47.2357C63.7662 47.3196 64.5228 47.3945 65.1955 47.4703Z" fill="#D9D9D9"/>
</g>
<defs>
<clipPath id="clip0_33_20">
<rect width="57.2654" height="67.0056" fill="white" transform="translate(1 58.0693) rotate(-90.6909)"/>
</clipPath>
</defs>
</svg>
