<svg width="40" height="40" viewBox="0 0 40 40" fill="none" xmlns="http://www.w3.org/2000/svg">
<g opacity="0.25">
<path d="M16.2344 5.625H1.17188C0.524597 5.625 0 6.1496 0 6.79688V21.8594C0 22.5067 0.524597 23.0313 1.17188 23.0313H7.53113V33.1564C7.53113 33.8034 8.05573 34.3283 8.703 34.3283H12.4689C12.973 34.3283 13.421 34.0054 13.5803 33.5269L17.3459 22.2302C17.3859 22.1106 17.4063 21.9855 17.4063 21.8594V6.79688C17.4063 6.1496 16.8817 5.625 16.2344 5.625ZM15.0626 21.6693L11.6241 31.9843H9.87488V21.8594C9.87488 21.2122 9.35028 20.6876 8.703 20.6876H2.34375V7.96875H15.0626V21.6693Z" fill="black"/>
<path d="M38.8281 5.625H23.7656C23.1183 5.625 22.5937 6.1496 22.5937 6.79688V21.8594C22.5937 22.5067 23.1183 23.0313 23.7656 23.0313H30.1251V33.1564C30.1251 33.8034 30.6497 34.3283 31.297 34.3283H35.0626C35.567 34.3283 36.0147 34.0054 36.1743 33.5269L39.9399 22.2302C39.9796 22.1106 40 21.9855 40 21.8594V6.79688C40 6.1496 39.4754 5.625 38.8281 5.625ZM37.6562 21.6693L34.2178 31.9843H32.4689V21.8594C32.4689 21.2122 31.944 20.6876 31.297 20.6876H24.9374V7.96875H37.6562V21.6693Z" fill="black"/>
</g>
</svg>
